<svg width="84" height="86" viewBox="0 0 84 86" fill="none" xmlns="http://www.w3.org/2000/svg">
<ellipse cx="41.8365" cy="42.656" rx="41.3844" ry="42.656" fill="#0864AF"/>
<path d="M32.4899 16.2331V52.0687C32.4899 53.7925 33.8873 55.1899 35.611 55.1899C37.3348 55.1899 38.7322 53.7925 38.7322 52.0687V44.208C38.7322 39.0367 42.9244 34.8445 48.0957 34.8445C53.267 34.8445 57.4592 39.0367 57.4592 44.208V50.2192C57.4592 58.7103 50.5758 65.5938 42.0846 65.5938H27.0567C25.3329 65.5938 23.9355 66.9912 23.9355 68.715C23.9355 70.4387 25.3329 71.8361 27.0567 71.8361H43.9341C54.9791 71.8361 63.9327 62.8825 63.9327 51.8376V41.2025C63.9327 34.2435 58.2914 28.6022 51.3325 28.6022H46.4773C42.1998 28.6022 38.7322 25.1346 38.7322 20.8571V16.2331C38.7322 14.5093 37.3348 13.1119 35.611 13.1119C33.8873 13.1119 32.4899 14.5093 32.4899 16.2331Z" fill="white"/>
<path d="M26.1313 47.676V41.0869C26.1313 39.4269 24.7856 38.0813 23.1257 38.0813C21.4658 38.0813 20.1201 39.4269 20.1201 41.0869V50.2192C20.1201 56.9227 25.5544 62.3571 32.258 62.3571H35.8416H40.1187C46.8223 62.3571 52.2566 56.9227 52.2566 50.2192V41.4337C52.2566 39.5822 50.7557 38.0813 48.9042 38.0813C47.0528 38.0813 45.5519 39.5822 45.5519 41.4337V47.676C45.5519 52.975 41.2562 57.2707 35.9572 57.2707H35.726C30.4269 57.2707 26.1313 52.975 26.1313 47.676Z" fill="#F6B418"/>
</svg>
